<svg width="4568" height="1218" viewBox="0 0 4568 1218" fill="none" xmlns="http://www.w3.org/2000/svg">
<path fill-rule="evenodd" clip-rule="evenodd" d="M1328 329C1328 547.667 1328.33 658 1329 658C1329.62 658 1330 663.667 1330 673C1330 682.333 1330.38 688 1331 688C1331.6 688 1332 692 1332 698C1332 704 1332.4 708 1333 708C1333.58 708 1334 711.333 1334 716C1334 720.667 1334.42 724 1335 724C1335.58 724 1336 727.333 1336 732C1336 736.667 1336.42 740 1337 740C1337.56 740 1338 742.667 1338 746C1338 749.333 1338.44 752 1339 752C1339.55 752 1340 754.25 1340 757C1340 759.75 1340.45 762 1341 762C1341.56 762 1342 764.667 1342 768C1342 771.333 1342.44 774 1343 774C1343.55 774 1344 776.25 1344 779C1344 781.75 1344.45 784 1345 784C1345.55 784 1346 785.8 1346 788C1346 790.2 1346.45 792 1347 792C1347.55 792 1348 794.25 1348 797C1348 799.75 1348.45 802 1349 802C1349.55 802 1350 803.8 1350 806C1350 808.2 1350.45 810 1351 810C1351.55 810 1352 811.8 1352 814C1352 816.2 1352.45 818 1353 818C1353.55 818 1354 819.35 1354 821C1354 822.65 1354.45 824 1355 824C1355.55 824 1356 825.8 1356 828C1356 830.2 1356.45 832 1357 832C1357.55 832 1358 833.35 1358 835C1358 836.65 1358.45 838 1359 838C1359.55 838 1360 839.35 1360 841C1360 842.65 1360.45 844 1361 844C1361.55 844 1362 845.35 1362 847C1362 848.65 1362.45 850 1363 850C1363.55 850 1364 851.35 1364 853C1364 854.65 1364.45 856 1365 856C1365.55 856 1366 857.35 1366 859C1366 860.65 1366.45 862 1367 862C1367.55 862 1368 863.35 1368 865C1368 866.65 1368.45 868 1369 868C1369.55 868 1370 869.35 1370 871C1370 872.65 1370.45 874 1371 874C1371.55 874 1372 874.9 1372 876C1372 877.1 1372.45 878 1373 878C1373.55 878 1374 879.35 1374 881C1374 882.65 1374.45 884 1375 884C1375.55 884 1376 884.9 1376 886C1376 887.1 1376.45 888 1377 888C1377.55 888 1378 889.35 1378 891C1378 892.65 1378.45 894 1379 894C1379.55 894 1380 894.9 1380 896C1380 897.1 1380.45 898 1381 898C1381.55 898 1382 898.9 1382 900C1382 901.1 1382.45 902 1383 902C1383.55 902 1384 902.9 1384 904C1384 905.1 1384.45 906 1385 906C1385.55 906 1386 907.35 1386 909C1386 910.65 1386.45 912 1387 912C1387.55 912 1388 912.9 1388 914C1388 915.1 1388.45 916 1389 916C1389.55 916 1390 916.9 1390 918C1390 919.1 1390.45 920 1391 920C1391.55 920 1392 920.9 1392 922C1392 923.1 1392.45 924 1393 924C1393.55 924 1394 924.9 1394 926C1394 927.1 1394.45 928 1395 928C1395.55 928 1396 928.801 1396 929.779C1396 930.758 1396.9 932.207 1398 933C1399.1 933.793 1400 935.242 1400 936.221C1400 937.199 1400.45 938 1401 938C1401.55 938 1402 938.9 1402 940C1402 941.1 1402.45 942 1403 942C1403.55 942 1404 942.9 1404 944C1404 945.1 1404.45 946 1405 946C1405.55 946 1406 946.801 1406 947.779C1406 948.758 1406.9 950.207 1408 951C1409.1 951.793 1410 953.242 1410 954.221C1410 955.199 1410.45 956 1411 956C1411.55 956 1412 956.801 1412 957.779C1412 958.758 1412.9 960.207 1414 961C1415.1 961.793 1416 963.143 1416 964C1416 964.857 1416.9 966.207 1418 967C1419.1 967.793 1420 969.143 1420 970C1420 970.857 1420.9 972.207 1422 973C1423.1 973.793 1424 975.143 1424 976C1424 976.857 1424.9 978.207 1426 979C1427.1 979.793 1428 981.062 1428 981.82C1428 982.577 1429.35 984.459 1431 986C1432.65 987.541 1434 989.341 1434 990C1434 990.659 1435.35 992.459 1437 994C1438.65 995.541 1440 997.332 1440 997.98C1440 998.627 1441.8 1000.89 1444 1003C1446.2 1005.11 1448 1007.36 1448 1007.99C1448 1008.61 1450.25 1011.32 1453 1014C1455.75 1016.68 1458 1019.35 1458 1019.94C1458 1021.34 1494.65 1058 1496.05 1058C1496.63 1058 1499.76 1060.7 1503 1064C1506.24 1067.3 1509.4 1070 1510.02 1070C1510.65 1070 1512.89 1071.8 1515 1074C1517.11 1076.2 1519.37 1078 1520.02 1078C1520.67 1078 1522.46 1079.35 1524 1081C1525.54 1082.65 1527.34 1084 1528 1084C1528.66 1084 1530.46 1085.35 1532 1087C1533.54 1088.65 1535.42 1090 1536.18 1090C1536.94 1090 1538.21 1090.9 1539 1092C1539.79 1093.1 1541.14 1094 1542 1094C1542.86 1094 1544.21 1094.9 1545 1096C1545.79 1097.1 1547.14 1098 1548 1098C1548.86 1098 1550.21 1098.9 1551 1100C1551.79 1101.1 1553.14 1102 1554 1102C1554.86 1102 1556.21 1102.9 1557 1104C1557.79 1105.1 1559.24 1106 1560.22 1106C1561.2 1106 1562 1106.45 1562 1107C1562 1107.55 1562.8 1108 1563.78 1108C1564.76 1108 1566.21 1108.9 1567 1110C1567.79 1111.1 1569.24 1112 1570.22 1112C1571.2 1112 1572 1112.45 1572 1113C1572 1113.55 1572.8 1114 1573.78 1114C1574.76 1114 1576.21 1114.9 1577 1116C1577.79 1117.1 1579.24 1118 1580.22 1118C1581.2 1118 1582 1118.45 1582 1119C1582 1119.55 1582.9 1120 1584 1120C1585.1 1120 1586 1120.45 1586 1121C1586 1121.55 1586.9 1122 1588 1122C1589.1 1122 1590 1122.45 1590 1123C1590 1123.55 1590.8 1124 1591.78 1124C1592.76 1124 1594.21 1124.9 1595 1126C1595.79 1127.1 1597.24 1128 1598.22 1128C1599.2 1128 1600 1128.45 1600 1129C1600 1129.55 1600.9 1130 1602 1130C1603.1 1130 1604 1130.45 1604 1131C1604 1131.55 1604.9 1132 1606 1132C1607.1 1132 1608 1132.45 1608 1133C1608 1133.55 1608.9 1134 1610 1134C1611.1 1134 1612 1134.45 1612 1135C1612 1135.55 1612.9 1136 1614 1136C1615.1 1136 1616 1136.45 1616 1137C1616 1137.55 1617.35 1138 1619 1138C1620.65 1138 1622 1138.45 1622 1139C1622 1139.55 1622.9 1140 1624 1140C1625.1 1140 1626 1140.45 1626 1141C1626 1141.55 1626.9 1142 1628 1142C1629.1 1142 1630 1142.45 1630 1143C1630 1143.55 1630.9 1144 1632 1144C1633.1 1144 1634 1144.45 1634 1145C1634 1145.55 1634.9 1146 1636 1146C1637.1 1146 1638 1146.45 1638 1147C1638 1147.55 1639.35 1148 1641 1148C1642.65 1148 1644 1148.45 1644 1149C1644 1149.55 1644.9 1150 1646 1150C1647.1 1150 1648 1150.45 1648 1151C1648 1151.55 1649.35 1152 1651 1152C1652.65 1152 1654 1152.45 1654 1153C1654 1153.55 1654.9 1154 1656 1154C1657.1 1154 1658 1154.45 1658 1155C1658 1155.55 1659.35 1156 1661 1156C1662.65 1156 1664 1156.45 1664 1157C1664 1157.55 1664.9 1158 1666 1158C1667.1 1158 1668 1158.45 1668 1159C1668 1159.55 1669.35 1160 1671 1160C1672.65 1160 1674 1160.45 1674 1161C1674 1161.55 1675.35 1162 1677 1162C1678.65 1162 1680 1162.45 1680 1163C1680 1163.55 1681.35 1164 1683 1164C1684.65 1164 1686 1164.45 1686 1165C1686 1165.55 1687.35 1166 1689 1166C1690.65 1166 1692 1166.45 1692 1167C1692 1167.55 1693.35 1168 1695 1168C1696.65 1168 1698 1168.45 1698 1169C1698 1169.55 1699.35 1170 1701 1170C1702.65 1170 1704 1170.45 1704 1171C1704 1171.55 1705.35 1172 1707 1172C1708.65 1172 1710 1172.45 1710 1173C1710 1173.55 1711.8 1174 1714 1174C1716.2 1174 1718 1174.45 1718 1175C1718 1175.55 1719.35 1176 1721 1176C1722.65 1176 1724 1176.45 1724 1177C1724 1177.55 1725.8 1178 1728 1178C1730.2 1178 1732 1178.45 1732 1179C1732 1179.55 1733.35 1180 1735 1180C1736.65 1180 1738 1180.45 1738 1181C1738 1181.55 1739.8 1182 1742 1182C1744.2 1182 1746 1182.45 1746 1183C1746 1183.55 1747.8 1184 1750 1184C1752.2 1184 1754 1184.45 1754 1185C1754 1185.55 1755.8 1186 1758 1186C1760.2 1186 1762 1186.45 1762 1187C1762 1187.55 1764.25 1188 1767 1188C1769.75 1188 1772 1188.45 1772 1189C1772 1189.55 1773.8 1190 1776 1190C1778.2 1190 1780 1190.45 1780 1191C1780 1191.55 1782.25 1192 1785 1192C1787.75 1192 1790 1192.45 1790 1193C1790 1193.55 1792.25 1194 1795 1194C1797.75 1194 1800 1194.45 1800 1195C1800 1195.55 1802.25 1196 1805 1196C1807.75 1196 1810 1196.45 1810 1197C1810 1197.56 1812.67 1198 1816 1198C1819.33 1198 1822 1198.44 1822 1199C1822 1199.56 1824.67 1200 1828 1200C1831.33 1200 1834 1200.44 1834 1201C1834 1201.56 1836.67 1202 1840 1202C1843.33 1202 1846 1202.44 1846 1203C1846 1203.57 1849 1204 1853 1204C1857 1204 1860 1204.43 1860 1205C1860 1205.58 1863.33 1206 1868 1206C1872.67 1206 1876 1206.42 1876 1207C1876 1207.58 1879.33 1208 1884 1208C1888.67 1208 1892 1208.42 1892 1209C1892 1209.6 1896 1210 1902 1210C1908 1210 1912 1210.4 1912 1211C1912 1211.6 1916 1212 1922 1212C1928 1212 1932 1212.4 1932 1213C1932 1213.62 1937.67 1214 1947 1214C1956.33 1214 1962 1214.38 1962 1215C1962 1215.63 1969 1216 1981 1216C1993 1216 2000 1216.37 2000 1217C2000 1217.66 2025.33 1218 2074 1218C2122.67 1218 2148 1217.66 2148 1217C2148 1216.37 2155 1216 2167 1216C2179 1216 2186 1215.63 2186 1215C2186 1214.38 2191.67 1214 2201 1214C2210.33 1214 2216 1213.62 2216 1213C2216 1212.4 2220 1212 2226 1212C2232 1212 2236 1211.6 2236 1211C2236 1210.4 2240 1210 2246 1210C2252 1210 2256 1209.6 2256 1209C2256 1208.42 2259.33 1208 2264 1208C2268.67 1208 2272 1207.58 2272 1207C2272 1206.42 2275.33 1206 2280 1206C2284.67 1206 2288 1205.58 2288 1205C2288 1204.43 2291 1204 2295 1204C2299 1204 2302 1203.57 2302 1203C2302 1202.44 2304.67 1202 2308 1202C2311.33 1202 2314 1201.56 2314 1201C2314 1200.44 2316.67 1200 2320 1200C2323.33 1200 2326 1199.56 2326 1199C2326 1198.44 2328.67 1198 2332 1198C2335.33 1198 2338 1197.56 2338 1197C2338 1196.45 2340.25 1196 2343 1196C2345.75 1196 2348 1195.55 2348 1195C2348 1194.45 2349.8 1194 2352 1194C2354.2 1194 2356 1193.55 2356 1193C2356 1192.45 2358.25 1192 2361 1192C2363.75 1192 2366 1191.55 2366 1191C2366 1190.45 2368.25 1190 2371 1190C2373.75 1190 2376 1189.55 2376 1189C2376 1188.45 2377.8 1188 2380 1188C2382.2 1188 2384 1187.55 2384 1187C2384 1186.45 2385.8 1186 2388 1186C2390.2 1186 2392 1185.55 2392 1185C2392 1184.45 2393.8 1184 2396 1184C2398.2 1184 2400 1183.55 2400 1183C2400 1182.45 2401.8 1182 2404 1182C2406.2 1182 2408 1181.55 2408 1181C2408 1180.45 2409.8 1180 2412 1180C2414.2 1180 2416 1179.55 2416 1179C2416 1178.45 2417.35 1178 2419 1178C2420.65 1178 2422 1177.55 2422 1177C2422 1176.45 2423.8 1176 2426 1176C2428.2 1176 2430 1175.55 2430 1175C2430 1174.45 2431.35 1174 2433 1174C2434.65 1174 2436 1173.55 2436 1173C2436 1172.45 2437.35 1172 2439 1172C2440.65 1172 2442 1171.55 2442 1171C2442 1170.45 2443.35 1170 2445 1170C2446.65 1170 2448 1169.55 2448 1169C2448 1168.45 2449.35 1168 2451 1168C2452.65 1168 2454 1167.55 2454 1167C2454 1166.45 2455.35 1166 2457 1166C2458.65 1166 2460 1165.55 2460 1165C2460 1164.45 2461.35 1164 2463 1164C2464.65 1164 2466 1163.55 2466 1163C2466 1162.45 2467.35 1162 2469 1162C2470.65 1162 2472 1161.55 2472 1161C2472 1160.45 2473.35 1160 2475 1160C2476.65 1160 2478 1159.55 2478 1159C2478 1158.45 2478.9 1158 2480 1158C2481.1 1158 2482 1157.55 2482 1157C2482 1156.45 2483.35 1156 2485 1156C2486.65 1156 2488 1155.55 2488 1155C2488 1154.45 2488.9 1154 2490 1154C2491.1 1154 2492 1153.55 2492 1153C2492 1152.45 2493.35 1152 2495 1152C2496.65 1152 2498 1151.55 2498 1151C2498 1150.45 2498.9 1150 2500 1150C2501.1 1150 2502 1149.55 2502 1149C2502 1148.45 2503.35 1148 2505 1148C2506.65 1148 2508 1147.55 2508 1147C2508 1146.45 2508.9 1146 2510 1146C2511.1 1146 2512 1145.55 2512 1145C2512 1144.45 2512.9 1144 2514 1144C2515.1 1144 2516 1143.55 2516 1143C2516 1142.45 2517.35 1142 2519 1142C2520.65 1142 2522 1141.55 2522 1141C2522 1140.45 2522.9 1140 2524 1140C2525.1 1140 2526 1139.55 2526 1139C2526 1138.45 2526.9 1138 2528 1138C2529.1 1138 2530 1137.55 2530 1137C2530 1136.45 2530.9 1136 2532 1136C2533.1 1136 2534 1135.55 2534 1135C2534 1134.45 2534.9 1134 2536 1134C2537.1 1134 2538 1133.55 2538 1133C2538 1132.45 2538.9 1132 2540 1132C2541.1 1132 2542 1131.55 2542 1131C2542 1130.45 2542.9 1130 2544 1130C2545.1 1130 2546 1129.55 2546 1129C2546 1128.45 2546.9 1128 2548 1128C2549.1 1128 2550 1127.55 2550 1127C2550 1126.45 2550.9 1126 2552 1126C2553.1 1126 2554 1125.55 2554 1125C2554 1124.45 2554.9 1124 2556 1124C2557.1 1124 2558 1123.55 2558 1123C2558 1122.45 2558.8 1122 2559.78 1122C2560.76 1122 2562.21 1121.1 2563 1120C2563.79 1118.9 2565.24 1118 2566.22 1118C2567.2 1118 2568 1117.55 2568 1117C2568 1116.45 2568.9 1116 2570 1116C2571.1 1116 2572 1115.55 2572 1115C2572 1114.45 2572.8 1114 2573.78 1114C2574.76 1114 2576.21 1113.1 2577 1112C2577.79 1110.9 2579.14 1110 2580 1110C2580.86 1110 2582.21 1109.1 2583 1108C2583.79 1106.9 2585.24 1106 2586.22 1106C2587.2 1106 2588 1105.55 2588 1105C2588 1104.45 2588.8 1104 2589.78 1104C2590.76 1104 2592.21 1103.1 2593 1102C2593.79 1100.9 2595.14 1100 2596 1100C2596.86 1100 2598.21 1099.1 2599 1098C2599.79 1096.9 2601.14 1096 2602 1096C2602.86 1096 2604.21 1095.1 2605 1094C2605.79 1092.9 2607.06 1092 2607.82 1092C2608.58 1092 2610.46 1090.65 2612 1089C2613.54 1087.35 2615.42 1086 2616.18 1086C2616.94 1086 2618.21 1085.1 2619 1084C2619.79 1082.9 2621.05 1082 2621.8 1082C2622.55 1082 2624.89 1080.2 2627 1078C2629.11 1075.8 2631.36 1074 2632 1074C2632.64 1074 2634.89 1072.2 2637 1070C2639.11 1067.8 2641.35 1066 2641.96 1066C2642.58 1066 2646.65 1062.4 2651 1058C2655.35 1053.6 2659.39 1050 2659.97 1050C2661.35 1050 2682 1029.34 2682 1027.96C2682 1027.38 2685.15 1023.8 2689 1020C2692.85 1016.2 2696 1012.6 2696 1011.98C2696 1011.37 2698.25 1008.68 2701 1006C2703.75 1003.32 2706 1000.61 2706 999.966C2706 999.326 2707.35 997.541 2709 996C2710.65 994.459 2712 992.659 2712 992C2712 991.341 2713.35 989.541 2715 988C2716.65 986.459 2718 984.659 2718 984C2718 983.341 2719.35 981.541 2721 980C2722.65 978.459 2724 976.577 2724 975.82C2724 975.062 2724.9 973.793 2726 973C2727.1 972.207 2728 970.758 2728 969.779C2728 968.801 2728.45 968 2729 968C2729.55 968 2730 967.199 2730 966.221C2730 965.242 2730.9 963.793 2732 963C2733.1 962.207 2734 960.857 2734 960C2734 959.143 2734.9 957.793 2736 957C2737.1 956.207 2738 954.758 2738 953.779C2738 952.801 2738.45 952 2739 952C2739.55 952 2740 951.199 2740 950.221C2740 949.242 2740.9 947.793 2742 947C2743.1 946.207 2744 944.758 2744 943.779C2744 942.801 2744.45 942 2745 942C2745.55 942 2746 941.1 2746 940C2746 938.9 2746.45 938 2747 938C2747.55 938 2748 937.199 2748 936.221C2748 935.242 2748.9 933.793 2750 933C2751.1 932.207 2752 930.758 2752 929.779C2752 928.801 2752.45 928 2753 928C2753.55 928 2754 927.1 2754 926C2754 924.9 2754.45 924 2755 924C2755.55 924 2756 923.1 2756 922C2756 920.9 2756.45 920 2757 920C2757.55 920 2758 919.1 2758 918C2758 916.9 2758.45 916 2759 916C2759.55 916 2760 914.65 2760 913C2760 911.35 2760.45 910 2761 910C2761.55 910 2762 909.1 2762 908C2762 906.9 2762.45 906 2763 906C2763.55 906 2764 905.1 2764 904C2764 902.9 2764.45 902 2765 902C2765.55 902 2766 901.1 2766 900C2766 898.9 2766.45 898 2767 898C2767.55 898 2768 897.1 2768 896C2768 894.9 2768.45 894 2769 894C2769.55 894 2770 892.65 2770 891C2770 889.35 2770.45 888 2771 888C2771.55 888 2772 887.1 2772 886C2772 884.9 2772.45 884 2773 884C2773.55 884 2774 882.65 2774 881C2774 879.35 2774.45 878 2775 878C2775.55 878 2776 877.1 2776 876C2776 874.9 2776.45 874 2777 874C2777.55 874 2778 872.65 2778 871C2778 869.35 2778.45 868 2779 868C2779.55 868 2780 866.65 2780 865C2780 863.35 2780.45 862 2781 862C2781.55 862 2782 861.1 2782 860C2782 858.9 2782.45 858 2783 858C2783.55 858 2784 856.65 2784 855C2784 853.35 2784.45 852 2785 852C2785.55 852 2786 850.65 2786 849C2786 847.35 2786.45 846 2787 846C2787.55 846 2788 844.65 2788 843C2788 841.35 2788.45 840 2789 840C2789.55 840 2790 838.2 2790 836C2790 833.8 2790.45 832 2791 832C2791.55 832 2792 830.65 2792 829C2792 827.35 2792.45 826 2793 826C2793.55 826 2794 824.2 2794 822C2794 819.8 2794.45 818 2795 818C2795.55 818 2796 816.65 2796 815C2796 813.35 2796.45 812 2797 812C2797.55 812 2798 809.75 2798 807C2798 804.25 2798.45 802 2799 802C2799.55 802 2800 800.2 2800 798C2800 795.8 2800.45 794 2801 794C2801.55 794 2802 792.2 2802 790C2802 787.8 2802.45 786 2803 786C2803.55 786 2804 783.75 2804 781C2804 778.25 2804.45 776 2805 776C2805.55 776 2806 773.75 2806 771C2806 768.25 2806.45 766 2807 766C2807.56 766 2808 763.333 2808 760C2808 756.667 2808.44 754 2809 754C2809.55 754 2810 751.75 2810 749C2810 746.25 2810.45 744 2811 744C2811.58 744 2812 740.667 2812 736C2812 731.333 2812.42 728 2813 728C2813.57 728 2814 725 2814 721C2814 717 2814.43 714 2815 714C2815.6 714 2816 710 2816 704C2816 698 2816.4 694 2817 694C2817.61 694 2818 689.667 2818 683C2818 676.333 2818.39 672 2819 672C2819.64 672 2820 664 2820 650C2820 636 2820.36 628 2821 628C2821.66 628 2822 526.152 2822 324.455V20.909L2824.46 18.455C2826.95 15.958 2834 14.884 2834 17C2834 17.55 2834.68 18 2835.51 18C2836.34 18 2854.56 35.55 2876 57C2897.44 78.45 2915.44 96 2916 96C2916.56 96 2934.11 113.1 2955 134C2975.89 154.9 2993.44 172 2994 172C2994.56 172 3012.11 189.1 3033 210C3053.89 230.9 3071.44 248 3072 248C3072.56 248 3090.11 265.1 3111 286C3131.89 306.9 3149.44 324 3150 324C3150.56 324 3168.56 341.55 3190 363C3211.44 384.45 3229.44 402 3230 402C3230.56 402 3248.11 419.1 3269 440C3289.89 460.9 3307.44 478 3308 478C3308.56 478 3326.11 495.1 3347 516C3367.89 536.9 3385.44 554 3386 554C3387.32 554 3432 598.676 3432 600C3432 601.323 3383.32 650 3382 650C3381.44 650 3364.34 666.65 3344 687C3323.66 707.35 3306.56 724 3306 724C3305.44 724 3287.89 741.1 3267 762C3246.11 782.9 3228.56 800 3228 800C3227.44 800 3210.34 816.65 3190 837C3169.66 857.35 3152.56 874 3152 874C3151.44 874 3133.89 891.1 3113 912C3092.11 932.9 3074.56 950 3074 950C3073.44 950 3056.34 966.65 3036 987C3015.66 1007.35 2998.56 1024 2998 1024C2997.44 1024 2979.89 1041.1 2959 1062C2938.11 1082.9 2920.56 1100 2920 1100C2919.44 1100 2902.34 1116.65 2882 1137C2861.66 1157.35 2844.56 1174 2844 1174C2842.99 1174 2818 1198.5 2818 1199.49C2818 1199.77 2931.21 1200 3069.57 1200C3334.07 1200 3324 1200.16 3324 1196.07C3324 1195.48 3389.7 1129.3 3470 1049C3550.3 968.703 3616 902.553 3616 901.999C3616 901.446 3633.33 883.669 3654.5 862.494L3693 823.995L3881 1012L4069 1200H4318.5C4455.72 1200 4568 1199.77 4568 1199.5C4568 1198.51 4480.99 1112 4479.99 1112C4479.44 1112 4459.64 1092.65 4436 1069C4412.36 1045.35 4392.56 1026 4392 1026C4391.44 1026 4371.64 1006.65 4348 983C4324.36 959.35 4304.56 940 4304 940C4303.44 940 4283.64 920.65 4260 897C4236.36 873.35 4216.56 854 4216 854C4215.44 854 4195.64 834.65 4172 811C4148.36 787.35 4128.56 768 4128 768C4127.44 768 4108.09 749.1 4085 726C4061.91 702.9 4042.34 684 4041.51 684C4040.67 684 4040 683.116 4040 682C4040 680.887 4039.33 680 4038.5 680C4036.85 680 3958 601.634 3958 600C3958 598.682 4038.69 518 4040 518C4040.56 518 4061.26 497.75 4086 473C4110.74 448.25 4131.44 428 4132 428C4132.56 428 4153.26 407.75 4178 383C4202.74 358.25 4223.44 338 4224 338C4224.56 338 4244.81 318.2 4269 294C4293.19 269.8 4313.44 250 4314 250C4314.56 250 4335.26 229.75 4360 205C4384.74 180.25 4405.44 160 4406 160C4406.56 160 4427.26 139.75 4452 115C4476.74 90.25 4497.44 70 4498 70C4498.99 70 4568 1.49 4568 0.504C4568 0.227 4455.72 0 4318.5 0H4069L3881 188.002L3693 376.003L3596.5 279.503C3543.42 226.428 3500 182.551 3500 182C3500 181.448 3459.28 140.273 3409.5 90.499L3319 0H2882.5H2446V316C2446 526 2445.67 632 2445 632C2444.38 632 2444 637 2444 645C2444 653 2443.62 658 2443 658C2442.43 658 2442 661 2442 665C2442 669 2441.57 672 2441 672C2440.44 672 2440 674.667 2440 678C2440 681.333 2439.56 684 2439 684C2438.45 684 2438 686.25 2438 689C2438 691.75 2437.55 694 2437 694C2436.45 694 2436 695.8 2436 698C2436 700.2 2435.55 702 2435 702C2434.45 702 2434 703.8 2434 706C2434 708.2 2433.55 710 2433 710C2432.45 710 2432 711.35 2432 713C2432 714.65 2431.55 716 2431 716C2430.45 716 2430 717.35 2430 719C2430 720.65 2429.55 722 2429 722C2428.45 722 2428 723.35 2428 725C2428 726.65 2427.55 728 2427 728C2426.45 728 2426 729.35 2426 731C2426 732.65 2425.55 734 2425 734C2424.45 734 2424 734.9 2424 736C2424 737.1 2423.55 738 2423 738C2422.45 738 2422 739.35 2422 741C2422 742.65 2421.55 744 2421 744C2420.45 744 2420 744.9 2420 746C2420 747.1 2419.55 748 2419 748C2418.45 748 2418 748.9 2418 750C2418 751.1 2417.55 752 2417 752C2416.45 752 2416 752.9 2416 754C2416 755.1 2415.55 756 2415 756C2414.45 756 2414 756.9 2414 758C2414 759.1 2413.55 760 2413 760C2412.45 760 2412 760.9 2412 762C2412 763.1 2411.55 764 2411 764C2410.45 764 2410 764.801 2410 765.779C2410 766.758 2409.1 768.207 2408 769C2406.9 769.793 2406 771.143 2406 772C2406 772.857 2405.1 774.207 2404 775C2402.9 775.793 2402 777.143 2402 778C2402 778.857 2401.1 780.207 2400 781C2398.9 781.793 2398 783.062 2398 783.82C2398 784.577 2396.65 786.459 2395 788C2393.35 789.541 2392 791.3 2392 791.909C2392 793.355 2361.35 824 2359.91 824C2359.3 824 2357.54 825.35 2356 827C2354.46 828.65 2352.66 830 2352 830C2351.34 830 2349.54 831.35 2348 833C2346.46 834.65 2344.58 836 2343.82 836C2343.06 836 2341.79 836.9 2341 838C2340.21 839.1 2338.86 840 2338 840C2337.14 840 2335.79 840.9 2335 842C2334.21 843.1 2332.76 844 2331.78 844C2330.8 844 2330 844.45 2330 845C2330 845.55 2329.1 846 2328 846C2326.9 846 2326 846.45 2326 847C2326 847.55 2325.1 848 2324 848C2322.9 848 2322 848.45 2322 849C2322 849.55 2321.1 850 2320 850C2318.9 850 2318 850.45 2318 851C2318 851.55 2317.1 852 2316 852C2314.9 852 2314 852.45 2314 853C2314 853.55 2313.1 854 2312 854C2310.9 854 2310 854.45 2310 855C2310 855.55 2309.1 856 2308 856C2306.9 856 2306 856.45 2306 857C2306 857.55 2305.1 858 2304 858C2302.9 858 2302 858.45 2302 859C2302 859.55 2301.1 860 2300 860C2298.9 860 2298 860.45 2298 861C2298 861.55 2297.1 862 2296 862C2294.9 862 2294 862.45 2294 863C2294 863.55 2292.65 864 2291 864C2289.35 864 2288 864.45 2288 865C2288 865.55 2287.1 866 2286 866C2284.9 866 2284 866.45 2284 867C2284 867.55 2282.65 868 2281 868C2279.35 868 2278 868.45 2278 869C2278 869.55 2276.65 870 2275 870C2273.35 870 2272 870.45 2272 871C2272 871.55 2270.65 872 2269 872C2267.35 872 2266 872.45 2266 873C2266 873.55 2264.65 874 2263 874C2261.35 874 2260 874.45 2260 875C2260 875.55 2258.2 876 2256 876C2253.8 876 2252 876.45 2252 877C2252 877.55 2250.65 878 2249 878C2247.35 878 2246 878.45 2246 879C2246 879.55 2244.2 880 2242 880C2239.8 880 2238 880.45 2238 881C2238 881.55 2236.2 882 2234 882C2231.8 882 2230 882.45 2230 883C2230 883.55 2227.75 884 2225 884C2222.25 884 2220 884.45 2220 885C2220 885.55 2217.75 886 2215 886C2212.25 886 2210 886.45 2210 887C2210 887.556 2207.33 888 2204 888C2200.67 888 2198 888.444 2198 889C2198 889.571 2195 890 2191 890C2187 890 2184 890.429 2184 891C2184 891.583 2180.67 892 2176 892C2171.33 892 2168 892.417 2168 893C2168 893.6 2164 894 2158 894C2152 894 2148 894.4 2148 895C2148 895.622 2142.33 896 2133 896C2123.67 896 2118 896.378 2118 897C2118 897.652 2102.67 898 2074 898C2045.33 898 2030 897.652 2030 897C2030 896.375 2024 896 2014 896C2004 896 1998 895.625 1998 895C1998 894.4 1994 894 1988 894C1982 894 1978 893.6 1978 893C1978 892.417 1974.67 892 1970 892C1965.33 892 1962 891.583 1962 891C1962 890.444 1959.33 890 1956 890C1952.67 890 1950 889.556 1950 889C1950 888.444 1947.33 888 1944 888C1940.67 888 1938 887.556 1938 887C1938 886.45 1935.75 886 1933 886C1930.25 886 1928 885.55 1928 885C1928 884.45 1925.75 884 1923 884C1920.25 884 1918 883.55 1918 883C1918 882.45 1916.2 882 1914 882C1911.8 882 1910 881.55 1910 881C1910 880.45 1908.2 880 1906 880C1903.8 880 1902 879.55 1902 879C1902 878.45 1900.2 878 1898 878C1895.8 878 1894 877.55 1894 877C1894 876.45 1892.65 876 1891 876C1889.35 876 1888 875.55 1888 875C1888 874.45 1886.2 874 1884 874C1881.8 874 1880 873.55 1880 873C1880 872.45 1878.65 872 1877 872C1875.35 872 1874 871.55 1874 871C1874 870.45 1872.65 870 1871 870C1869.35 870 1868 869.55 1868 869C1868 868.45 1867.1 868 1866 868C1864.9 868 1864 867.55 1864 867C1864 866.45 1862.65 866 1861 866C1859.35 866 1858 865.55 1858 865C1858 864.45 1857.1 864 1856 864C1854.9 864 1854 863.55 1854 863C1854 862.45 1852.65 862 1851 862C1849.35 862 1848 861.55 1848 861C1848 860.45 1847.1 860 1846 860C1844.9 860 1844 859.55 1844 859C1844 858.45 1843.1 858 1842 858C1840.9 858 1840 857.55 1840 857C1840 856.45 1839.1 856 1838 856C1836.9 856 1836 855.55 1836 855C1836 854.45 1835.1 854 1834 854C1832.9 854 1832 853.55 1832 853C1832 852.45 1831.1 852 1830 852C1828.9 852 1828 851.55 1828 851C1828 850.45 1827.1 850 1826 850C1824.9 850 1824 849.55 1824 849C1824 848.45 1823.1 848 1822 848C1820.9 848 1820 847.55 1820 847C1820 846.45 1819.2 846 1818.22 846C1817.24 846 1815.79 845.1 1815 844C1814.21 842.9 1812.86 842 1812 842C1811.14 842 1809.79 841.1 1809 840C1808.21 838.9 1806.86 838 1806 838C1805.14 838 1803.79 837.1 1803 836C1802.21 834.9 1800.94 834 1800.18 834C1799.42 834 1797.54 832.65 1796 831C1794.46 829.35 1792.67 828 1792.02 828C1791.37 828 1789.11 826.2 1787 824C1784.89 821.8 1782.67 820 1782.07 820C1780.64 820 1760 799.356 1760 797.933C1760 797.334 1758.2 795.114 1756 793C1753.8 790.886 1752 788.627 1752 787.98C1752 787.332 1750.65 785.541 1749 784C1747.35 782.459 1746 780.577 1746 779.82C1746 779.062 1745.1 777.793 1744 777C1742.9 776.207 1742 774.857 1742 774C1742 773.143 1741.1 771.793 1740 771C1738.9 770.207 1738 768.758 1738 767.779C1738 766.801 1737.55 766 1737 766C1736.45 766 1736 765.1 1736 764C1736 762.9 1735.55 762 1735 762C1734.45 762 1734 761.1 1734 760C1734 758.9 1733.55 758 1733 758C1732.45 758 1732 757.1 1732 756C1732 754.9 1731.55 754 1731 754C1730.45 754 1730 753.1 1730 752C1730 750.9 1729.55 750 1729 750C1728.45 750 1728 749.1 1728 748C1728 746.9 1727.55 746 1727 746C1726.45 746 1726 745.1 1726 744C1726 742.9 1725.55 742 1725 742C1724.45 742 1724 740.65 1724 739C1724 737.35 1723.55 736 1723 736C1722.45 736 1722 735.1 1722 734C1722 732.9 1721.55 732 1721 732C1720.45 732 1720 730.65 1720 729C1720 727.35 1719.55 726 1719 726C1718.45 726 1718 724.65 1718 723C1718 721.35 1717.55 720 1717 720C1716.45 720 1716 718.2 1716 716C1716 713.8 1715.55 712 1715 712C1714.45 712 1714 710.65 1714 709C1714 707.35 1713.55 706 1713 706C1712.45 706 1712 704.2 1712 702C1712 699.8 1711.55 698 1711 698C1710.45 698 1710 695.75 1710 693C1710 690.25 1709.55 688 1709 688C1708.44 688 1708 685.333 1708 682C1708 678.667 1707.56 676 1707 676C1706.44 676 1706 673.333 1706 670C1706 666.667 1705.56 664 1705 664C1704.39 664 1704 659.667 1704 653C1704 646.333 1703.61 642 1703 642C1702.33 642 1702 534.333 1702 321V0H1515H1328V329ZM1.25 3.496C0.253 4.628 0 126.448 0 605.458V1206H664H1328V1045V884H851H374V443V2L188.25 2.038C29.092 2.071 2.321 2.279 1.25 3.496Z" fill="#fff"/>
</svg>
